<?xml version="1.0" encoding="UTF-8"?>
<svg width="1200pt" height="1200pt" version="1.1" viewBox="0 0 1200 1200" xmlns="http://www.w3.org/2000/svg">
 <path d="m60 262.5c0-55.934 45.324-101.26 101.26-101.26h877.5c55.934 0 101.26 45.324 101.26 101.26s-45.324 101.26-101.26 101.26h-877.5c-55.934-0.015624-101.26-45.324-101.26-101.26zm978.74 236.24h-877.48c-55.934 0-101.26 45.324-101.26 101.26s45.324 101.26 101.26 101.26h877.5c55.918 0 101.24-45.324 101.24-101.26s-45.324-101.26-101.26-101.26zm0 337.52h-877.48c-55.934 0-101.26 45.309-101.26 101.24s45.324 101.26 101.26 101.26h877.5c55.934 0 101.26-45.324 101.26-101.26-0.003906-55.934-45.34-101.24-101.27-101.24z"/>
</svg>
